<svg width="12" height="23" viewBox="0 3 12 23" fill="none" xmlns="http://www.w3.org/2000/svg">
<path d="M5.862 17H8.13C8.91 17 9.528 16.772 9.984 16.316C10.428 15.86 10.65 15.236 10.65 14.444V7.982C10.65 7.19 10.428 6.566 9.984 6.11C9.528 5.654 8.91 5.426 8.13 5.426H5.862C5.082 5.426 4.47 5.654 4.026 6.11C3.57 6.566 3.342 7.19 3.342 7.982V8.864C3.342 9.008 3.408 9.08 3.54 9.08H4.044C4.176 9.08 4.242 9.008 4.242 8.864V8.018C4.242 7.442 4.392 7.004 4.692 6.704C4.98 6.392 5.4 6.236 5.952 6.236H8.058C8.61 6.236 9.03 6.392 9.318 6.704C9.606 7.016 9.75 7.454 9.75 8.018V14.408C9.75 14.972 9.606 15.41 9.318 15.722C9.03 16.034 8.61 16.19 8.058 16.19H5.952C5.4 16.19 4.98 16.04 4.692 15.74C4.392 15.428 4.242 14.984 4.242 14.408V13.562C4.242 13.418 4.176 13.346 4.044 13.346H3.54C3.408 13.346 3.342 13.418 3.342 13.562V14.444C3.342 15.236 3.57 15.86 4.026 16.316C4.47 16.772 5.082 17 5.862 17Z" fill="black"/>
<path d="M6.138 22.2273H3.87C3.09 22.2273 2.472 21.9993 2.016 21.5433C1.572 21.0873 1.35 20.4633 1.35 19.6713V13.2093C1.35 12.4173 1.572 11.7933 2.016 11.3373C2.472 10.8813 3.09 10.6533 3.87 10.6533H6.138C6.918 10.6533 7.53 10.8813 7.974 11.3373C8.43 11.7933 8.658 12.4173 8.658 13.2093V14.0913C8.658 14.2353 8.592 14.3073 8.46 14.3073H7.956C7.824 14.3073 7.758 14.2353 7.758 14.0913V13.2453C7.758 12.6693 7.608 12.2313 7.308 11.9313C7.02 11.6193 6.6 11.4633 6.048 11.4633H3.942C3.39 11.4633 2.97 11.6193 2.682 11.9313C2.394 12.2433 2.25 12.6813 2.25 13.2453V19.6353C2.25 20.1993 2.394 20.6373 2.682 20.9493C2.97 21.2613 3.39 21.4173 3.942 21.4173H6.048C6.6 21.4173 7.02 21.2673 7.308 20.9673C7.608 20.6553 7.758 20.2113 7.758 19.6353V18.7893C7.758 18.6453 7.824 18.5733 7.956 18.5733H8.46C8.592 18.5733 8.658 18.6453 8.658 18.7893V19.6713C8.658 20.4633 8.43 21.0873 7.974 21.5433C7.53 21.9993 6.918 22.2273 6.138 22.2273Z" fill="black"/>
</svg>